{"scene":0,"asset":{"generator":"ImageToStl.com","version":"2.0"},"scenes":[{"name":"Scene","nodes":[0]}],"nodes":[{"name":"Node0","children":[1,2,3]},{"name":"Node1","mesh":0},{"name":"Node2","mesh":1},{"name":"Node3","mesh":2}],"materials":[{"name":"Material #22","pbrMetallicRoughness":{"baseColorFactor":[1.0,1.0,1.0,1.0],"metallicFactor":0.0,"roughnessFactor":1.0},"emissiveFactor":[0.0,0.0,0.0],"doubleSided":true},{"name":"Head1.001","pbrMetallicRoughness":{"baseColorFactor":[0.478431,0.505882,0.537255,1.0],"metallicFactor":0.0,"roughnessFactor":1.0},"emissiveFactor":[0.0,0.0,0.0],"doubleSided":true},{"name":"Material #21","pbrMetallicRoughness":{"baseColorFactor":[0.6603,0.4271,0.4205,1.0],"metallicFactor":0.0,"roughnessFactor":1.0},"emissiveFactor":[0.0,0.0,0.0],"doubleSided":true},{"name":"Pupil","pbrMetallicRoughness":{"baseColorFactor":[0.5566,0.5566,0.5566,1.0],"metallicFactor":0.0,"roughnessFactor":1.0},"emissiveFactor":[0.0,0.0,0.0],"doubleSided":true},{"name":"Lens","pbrMetallicRoughness":{"baseColorFactor":[0.0,0.0,0.0,1.0],"metallicFactor":0.0,"roughnessFactor":1.0},"emissiveFactor":[0.0,0.0,0.0],"doubleSided":true},{"name":"sclera","pbrMetallicRoughness":{"baseColorFactor":[1.0,1.0,1.0,1.0],"metallicFactor":0.0,"roughnessFactor":1.0},"emissiveFactor":[0.0,0.0,0.0],"doubleSided":true},{"name":"Iris","pbrMetallicRoughness":{"baseColorFactor":[1.0,1.0,1.0,1.0],"metallicFactor":0.0,"roughnessFactor":1.0},"emissiveFactor":[0.0,0.0,0.0],"doubleSided":true},{"name":"Head1","pbrMetallicRoughness":{"baseColorFactor":[0.478431,0.505882,0.537255,1.0],"metallicFactor":0.0,"roughnessFactor":1.0},"emissiveFactor":[0.0,0.0,0.0],"doubleSided":true},{"name":"RKK_Joint","pbrMetallicRoughness":{"baseColorFactor":[0.4,0.4,0.4,1.0],"metallicFactor":0.0,"roughnessFactor":1.0},"emissiveFactor":[0.0,0.0,0.0],"doubleSided":true},{"name":"x1","pbrMetallicRoughness":{"baseColorFactor":[0.0,0.0,0.0,1.0],"metallicFactor":0.0,"roughnessFactor":1.0},"doubleSided":true}],"meshes":[{"name":"Mesh0","primitives":[{"indices":3,"material":0,"attributes":{"POSITION":0,"NORMAL":1,"TEXCOORD_0":2}},{"indices":4,"material":1,"attributes":{"POSITION":0,"NORMAL":1,"TEXCOORD_0":2}},{"indices":5,"material":2,"attributes":{"POSITION":0,"NORMAL":1,"TEXCOORD_0":2}},{"indices":6,"material":3,"attributes":{"POSITION":0,"NORMAL":1,"TEXCOORD_0":2}},{"indices":7,"material":4,"attributes":{"POSITION":0,"NORMAL":1,"TEXCOORD_0":2}},{"indices":8,"material":5,"attributes":{"POSITION":0,"NORMAL":1,"TEXCOORD_0":2}},{"indices":9,"material":6,"attributes":{"POSITION":0,"NORMAL":1,"TEXCOORD_0":2}}]},{"name":"Mesh0","primitives":[{"indices":13,"material":7,"attributes":{"POSITION":10,"NORMAL":11,"TEXCOORD_0":12}},{"indices":14,"material":8,"attributes":{"POSITION":10,"NORMAL":11,"TEXCOORD_0":12}}]},{"name":"Mesh0","primitives":[{"indices":17,"material":9,"attributes":{"POSITION":15,"NORMAL":16}}]}],"accessors":[{"bufferView":0,"componentType":5126,"count":6578,"type":"VEC3","min":[-0.06533839,0.6352417,1.4605633],"max":[0.092350766,0.8577791,1.691437]},{"bufferView":1,"componentType":5126,"count":6578,"type":"VEC3"},{"bufferView":2,"componentType":5126,"count":6578,"type":"VEC2"},{"bufferView":3,"componentType":5123,"count":13968,"type":"SCALAR"},{"bufferView":4,"componentType":5123,"count":64116,"type":"SCALAR"},{"bufferView":5,"componentType":5123,"count":1224,"type":"SCALAR"},{"bufferView":6,"componentType":5123,"count":10260,"type":"SCALAR"},{"bufferView":7,"componentType":5123,"count":6480,"type":"SCALAR"},{"bufferView":8,"componentType":5123,"count":8640,"type":"SCALAR"},{"bufferView":9,"componentType":5123,"count":5616,"type":"SCALAR"},{"bufferView":10,"componentType":5126,"count":10989,"type":"VEC3","min":[-0.22544831,0.43879026,-0.00154984],"max":[0.3959476,1.2789578,1.5517807]},{"bufferView":11,"componentType":5126,"count":10989,"type":"VEC3"},{"bufferView":12,"componentType":5126,"count":10989,"type":"VEC2"},{"bufferView":13,"componentType":5123,"count":159516,"type":"SCALAR"},{"bufferView":14,"componentType":5123,"count":29376,"type":"SCALAR"},{"bufferView":15,"componentType":5126,"count":2994,"type":"VEC3","min":[0.08059314,0.43485373,1.1825436],"max":[0.17174484,1.2477255,2.2012122]},{"bufferView":16,"componentType":5126,"count":2994,"type":"VEC3"},{"bufferView":17,"componentType":5123,"count":18126,"type":"SCALAR"}],"bufferViews":[{"target":34962,"buffer":0,"byteLength":78936,"byteOffset":0},{"target":34962,"buffer":0,"byteLength":78936,"byteOffset":78936},{"target":34962,"buffer":0,"byteLength":52624,"byteOffset":157872},{"target":34963,"buffer":0,"byteLength":27936,"byteOffset":210496},{"target":34963,"buffer":0,"byteLength":128232,"byteOffset":238432},{"target":34963,"buffer":0,"byteLength":2448,"byteOffset":366664},{"target":34963,"buffer":0,"byteLength":20520,"byteOffset":369112},{"target":34963,"buffer":0,"byteLength":12960,"byteOffset":389632},{"target":34963,"buffer":0,"byteLength":17280,"byteOffset":402592},{"target":34963,"buffer":0,"byteLength":11232,"byteOffset":419872},{"target":34962,"buffer":0,"byteLength":131868,"byteOffset":431104},{"target":34962,"buffer":0,"byteLength":131868,"byteOffset":562972},{"target":34962,"buffer":0,"byteLength":87912,"byteOffset":694840},{"target":34963,"buffer":0,"byteLength":319032,"byteOffset":782752},{"target":34963,"buffer":0,"byteLength":58752,"byteOffset":1101784},{"target":34962,"buffer":0,"byteLength":35928,"byteOffset":1160536},{"target":34962,"buffer":0,"byteLength":35928,"byteOffset":1196464},{"target":34963,"buffer":0,"byteLength":36252,"byteOffset":1232392}],"buffers":[{"byteLength":1268644,"uri":"data:application/octet-stream;base64,"}]}